REM DIRINDEX 1\2\4\8,1\2\4\9,1\2\4\10,1\2\5\11,1\2\5\12,1\2\5\13,1\2\5\14,1\2\5\15,1\3\6\16,1\3\6\17,1\3\6\18,1\3\7\19,1\3\7\20,1\3\7\21,1\3\7\22,1\3\7\23
REM DIRNAME "folder01","folder02","folder03","folder04","folder05","folder06","folder07","folder08","folder09","folder10","folder11","folder12","folder13","folder14","folder15","folder16","folder17","folder18","folder19","folder20","folder21","folder22","folder23"
TITLE ""
FILE "LR_black_phrase_A10.mp3" MP3
  TRACK 01 AUDIO
    TITLE "0:"
    INDEX 01 00:00:00
  TRACK 02 AUDIO
    TITLE "19:cjc171_12351"
    INDEX 01 00:00:14
  TRACK 03 AUDIO
    TITLE "0:"
    INDEX 01 00:01:37
  TRACK 04 AUDIO
    TITLE "20:cjc171_12352"
    INDEX 01 00:01:70
  TRACK 05 AUDIO
    TITLE "0:"
    INDEX 01 00:04:36
  TRACK 06 AUDIO
    TITLE "21:cjc171_12353"
    INDEX 01 00:05:37
  TRACK 07 AUDIO
    TITLE "0:"
    INDEX 01 00:07:59
  TRACK 08 AUDIO
    TITLE "22:cjc171_12354"
    INDEX 01 00:08:24
  TRACK 09 AUDIO
    TITLE "0:"
    INDEX 01 00:11:02
  TRACK 10 AUDIO
    TITLE "23:cjc171_12355"
    INDEX 01 00:11:30
  TRACK 11 AUDIO
    TITLE "0:"
    INDEX 01 00:14:08
  TRACK 12 AUDIO
    TITLE "19:cjc171_12356"
    INDEX 01 00:15:14
  TRACK 13 AUDIO
    TITLE "0:"
    INDEX 01 00:16:45
  TRACK 14 AUDIO
    TITLE "20:cjc171_12357"
    INDEX 01 00:17:11
  TRACK 15 AUDIO
    TITLE "0:"
    INDEX 01 00:18:65
  TRACK 16 AUDIO
    TITLE "21:cjc171_12358"
    INDEX 01 00:19:64
  TRACK 17 AUDIO
    TITLE "0:"
    INDEX 01 00:22:43
  TRACK 18 AUDIO
    TITLE "22:cjc171_12359"
    INDEX 01 00:23:07
  TRACK 19 AUDIO
    TITLE "0:"
    INDEX 01 00:25:47
  TRACK 20 AUDIO
    TITLE "23:cjc171_12360"
    INDEX 01 00:26:00
  TRACK 21 AUDIO
    TITLE "0:"
    INDEX 01 00:28:40
  TRACK 22 AUDIO
    TITLE "19:cjc171_12361"
    INDEX 01 00:29:43
  TRACK 23 AUDIO
    TITLE "0:"
    INDEX 01 00:30:47
  TRACK 24 AUDIO
    TITLE "20:cjc171_12362"
    INDEX 01 00:31:11
  TRACK 25 AUDIO
    TITLE "0:"
    INDEX 01 00:32:34
  TRACK 26 AUDIO
    TITLE "21:cjc171_12363"
    INDEX 01 00:33:33
  TRACK 27 AUDIO
    TITLE "0:"
    INDEX 01 00:36:39
  TRACK 28 AUDIO
    TITLE "22:cjc171_12364"
    INDEX 01 00:37:04
  TRACK 29 AUDIO
    TITLE "0:"
    INDEX 01 00:40:00
  TRACK 30 AUDIO
    TITLE "23:cjc171_12365"
    INDEX 01 00:40:31
  TRACK 31 AUDIO
    TITLE "0:"
    INDEX 01 00:43:28
  TRACK 32 AUDIO
    TITLE "19:cjc171_12366"
    INDEX 01 00:44:27
  TRACK 33 AUDIO
    TITLE "0:"
    INDEX 01 00:45:44
  TRACK 34 AUDIO
    TITLE "20:cjc171_12367"
    INDEX 01 00:46:06
  TRACK 35 AUDIO
    TITLE "0:"
    INDEX 01 00:48:50
  TRACK 36 AUDIO
    TITLE "21:cjc171_12368"
    INDEX 01 00:49:48
  TRACK 37 AUDIO
    TITLE "0:"
    INDEX 01 00:51:59
  TRACK 38 AUDIO
    TITLE "22:cjc171_12369"
    INDEX 01 00:52:17
  TRACK 39 AUDIO
    TITLE "0:"
    INDEX 01 00:54:45
  TRACK 40 AUDIO
    TITLE "23:cjc171_12370"
    INDEX 01 00:54:65
  TRACK 41 AUDIO
    TITLE "0:"
    INDEX 01 00:57:18
  TRACK 42 AUDIO
    TITLE "19:cjc171_12371"
    INDEX 01 00:58:14
  TRACK 43 AUDIO
    TITLE "0:"
    INDEX 01 00:59:44
  TRACK 44 AUDIO
    TITLE "20:cjc171_12372"
    INDEX 01 01:00:03
  TRACK 45 AUDIO
    TITLE "0:"
    INDEX 01 01:01:37
  TRACK 46 AUDIO
    TITLE "21:cjc171_12373"
    INDEX 01 01:02:37
  TRACK 47 AUDIO
    TITLE "0:"
    INDEX 01 01:05:00
  TRACK 48 AUDIO
    TITLE "22:cjc171_12374"
    INDEX 01 01:05:33
  TRACK 49 AUDIO
    TITLE "0:"
    INDEX 01 01:07:69
  TRACK 50 AUDIO
    TITLE "23:cjc171_12375"
    INDEX 01 01:08:14
  TRACK 51 AUDIO
    TITLE "0:"
    INDEX 01 01:10:50
  TRACK 52 AUDIO
    TITLE "19:cjc171_12376"
    INDEX 01 01:11:44
  TRACK 53 AUDIO
    TITLE "0:"
    INDEX 01 01:12:71
  TRACK 54 AUDIO
    TITLE "20:cjc171_12377"
    INDEX 01 01:13:33
  TRACK 55 AUDIO
    TITLE "0:"
    INDEX 01 01:16:60
  TRACK 56 AUDIO
    TITLE "21:cjc171_12378"
    INDEX 01 01:17:62
  TRACK 57 AUDIO
    TITLE "0:"
    INDEX 01 01:19:35
  TRACK 58 AUDIO
    TITLE "22:cjc171_12379"
    INDEX 01 01:19:69
  TRACK 59 AUDIO
    TITLE "0:"
    INDEX 01 01:22:45
  TRACK 60 AUDIO
    TITLE "23:cjc171_12380"
    INDEX 01 01:22:67
  TRACK 61 AUDIO
    TITLE "0:"
    INDEX 01 01:25:44
  TRACK 62 AUDIO
    TITLE "19:cjc171_12381"
    INDEX 01 01:26:49
  TRACK 63 AUDIO
    TITLE "0:"
    INDEX 01 01:27:60
  TRACK 64 AUDIO
    TITLE "20:cjc171_12382"
    INDEX 01 01:28:21
  TRACK 65 AUDIO
    TITLE "0:"
    INDEX 01 01:31:07
  TRACK 66 AUDIO
    TITLE "21:cjc171_12383"
    INDEX 01 01:32:03
  TRACK 67 AUDIO
    TITLE "0:"
    INDEX 01 01:34:43
  TRACK 68 AUDIO
    TITLE "22:cjc171_12384"
    INDEX 01 01:35:05
  TRACK 69 AUDIO
    TITLE "0:"
    INDEX 01 01:37:45
  TRACK 70 AUDIO
    TITLE "23:cjc171_12385"
    INDEX 01 01:38:01
  TRACK 71 AUDIO
    TITLE "0:"
    INDEX 01 01:40:39
  TRACK 72 AUDIO
    TITLE "19:cjc171_12386"
    INDEX 01 01:41:45
  TRACK 73 AUDIO
    TITLE "0:"
    INDEX 01 01:42:62
  TRACK 74 AUDIO
    TITLE "20:cjc171_12387"
    INDEX 01 01:43:26
  TRACK 75 AUDIO
    TITLE "0:"
    INDEX 01 01:47:26
  TRACK 76 AUDIO
    TITLE "21:cjc171_12388"
    INDEX 01 01:48:17
  TRACK 77 AUDIO
    TITLE "0:"
    INDEX 01 01:50:06
  TRACK 78 AUDIO
    TITLE "22:cjc171_12389"
    INDEX 01 01:50:44
  TRACK 79 AUDIO
    TITLE "0:"
    INDEX 01 01:52:17
  TRACK 80 AUDIO
    TITLE "23:cjc171_12390"
    INDEX 01 01:52:49
  TRACK 81 AUDIO
    TITLE "0:"
    INDEX 01 01:54:22
  TRACK 82 AUDIO
    TITLE "19:cjc171_12391"
    INDEX 01 01:55:29
  TRACK 83 AUDIO
    TITLE "0:"
    INDEX 01 01:56:50
  TRACK 84 AUDIO
    TITLE "20:cjc171_12392"
    INDEX 01 01:57:16
  TRACK 85 AUDIO
    TITLE "0:"
    INDEX 01 02:00:23
  TRACK 86 AUDIO
    TITLE "21:cjc171_12393"
    INDEX 01 02:01:20
  TRACK 87 AUDIO
    TITLE "0:"
    INDEX 01 02:03:68
  TRACK 88 AUDIO
    TITLE "22:cjc171_12394"
    INDEX 01 02:04:34
  TRACK 89 AUDIO
    TITLE "0:"
    INDEX 01 02:07:19
  TRACK 90 AUDIO
    TITLE "23:cjc171_12395"
    INDEX 01 02:07:48
  TRACK 91 AUDIO
    TITLE "0:"
    INDEX 01 02:10:33
  TRACK 92 AUDIO
    TITLE "19:cjc171_12396"
    INDEX 01 02:11:36
  TRACK 93 AUDIO
    TITLE "0:"
    INDEX 01 02:12:47
  TRACK 94 AUDIO
    TITLE "20:cjc171_12397"
    INDEX 01 02:13:06
  TRACK 95 AUDIO
    TITLE "0:"
    INDEX 01 02:15:28
  TRACK 96 AUDIO
    TITLE "21:cjc171_12398"
    INDEX 01 02:16:24
  TRACK 97 AUDIO
    TITLE "0:"
    INDEX 01 02:17:70
  TRACK 98 AUDIO
    TITLE "22:cjc171_12399"
    INDEX 01 02:18:32
  TRACK 99 AUDIO
    TITLE "0:"
    INDEX 01 02:20:12
  TRACK 100 AUDIO
    TITLE "23:cjc171_12400"
    INDEX 01 02:20:35
  TRACK 101 AUDIO
    TITLE "0:"
    INDEX 01 02:22:14
  TRACK 102 AUDIO
    TITLE "19:cjc171_12401"
    INDEX 01 02:23:10
  TRACK 103 AUDIO
    TITLE "0:"
    INDEX 01 02:24:43
  TRACK 104 AUDIO
    TITLE "20:cjc171_12402"
    INDEX 01 02:25:03
  TRACK 105 AUDIO
    TITLE "0:"
    INDEX 01 02:27:39
  TRACK 106 AUDIO
    TITLE "21:cjc171_12403"
    INDEX 01 02:28:38
  TRACK 107 AUDIO
    TITLE "0:"
    INDEX 01 02:30:33
  TRACK 108 AUDIO
    TITLE "22:cjc171_12404"
    INDEX 01 02:30:69
  TRACK 109 AUDIO
    TITLE "0:"
    INDEX 01 02:33:12
  TRACK 110 AUDIO
    TITLE "23:cjc171_12405"
    INDEX 01 02:33:36
  TRACK 111 AUDIO
    TITLE "0:"
    INDEX 01 02:35:48
  TRACK 112 AUDIO
    TITLE "19:cjc171_12406"
    INDEX 01 02:36:54
  TRACK 113 AUDIO
    TITLE "0:"
    INDEX 01 02:38:06
  TRACK 114 AUDIO
    TITLE "20:cjc171_12407"
    INDEX 01 02:38:41
  TRACK 115 AUDIO
    TITLE "0:"
    INDEX 01 02:41:10
  TRACK 116 AUDIO
    TITLE "21:cjc171_12408"
    INDEX 01 02:42:09
  TRACK 117 AUDIO
    TITLE "0:"
    INDEX 01 02:44:20
  TRACK 118 AUDIO
    TITLE "22:cjc171_12409"
    INDEX 01 02:44:53
  TRACK 119 AUDIO
    TITLE "0:"
    INDEX 01 02:46:70
  TRACK 120 AUDIO
    TITLE "23:cjc171_12410"
    INDEX 01 02:47:16
  TRACK 121 AUDIO
    TITLE "0:"
    INDEX 01 02:49:31
  TRACK 122 AUDIO
    TITLE "19:cjc171_12411"
    INDEX 01 02:50:34
  TRACK 123 AUDIO
    TITLE "0:"
    INDEX 01 02:51:59
  TRACK 124 AUDIO
    TITLE "20:cjc171_12412"
    INDEX 01 02:52:23
  TRACK 125 AUDIO
    TITLE "0:"
    INDEX 01 02:54:24
  TRACK 126 AUDIO
    TITLE "21:cjc171_12413"
    INDEX 01 02:55:24
  TRACK 127 AUDIO
    TITLE "0:"
    INDEX 01 02:57:13
  TRACK 128 AUDIO
    TITLE "22:cjc171_12414"
    INDEX 01 02:57:50
  TRACK 129 AUDIO
    TITLE "0:"
    INDEX 01 02:59:39
  TRACK 130 AUDIO
    TITLE "23:cjc171_12415"
    INDEX 01 02:59:70
  TRACK 131 AUDIO
    TITLE "0:"
    INDEX 01 03:01:59
  TRACK 132 AUDIO
    TITLE "19:cjc171_12416"
    INDEX 01 03:02:67
  TRACK 133 AUDIO
    TITLE "0:"
    INDEX 01 03:03:72
  TRACK 134 AUDIO
    TITLE "20:cjc171_12417"
    INDEX 01 03:04:38
  TRACK 135 AUDIO
    TITLE "0:"
    INDEX 01 03:07:13
  TRACK 136 AUDIO
    TITLE "21:cjc171_12418"
    INDEX 01 03:08:12
  TRACK 137 AUDIO
    TITLE "0:"
    INDEX 01 03:09:67
  TRACK 138 AUDIO
    TITLE "22:cjc171_12419"
    INDEX 01 03:10:31
  TRACK 139 AUDIO
    TITLE "0:"
    INDEX 01 03:12:14
  TRACK 140 AUDIO
    TITLE "23:cjc171_12420"
    INDEX 01 03:12:44
  TRACK 141 AUDIO
    TITLE "0:"
    INDEX 01 03:14:27
  TRACK 142 AUDIO
    TITLE "19:cjc171_12421"
    INDEX 01 03:15:30
  TRACK 143 AUDIO
    TITLE "0:"
    INDEX 01 03:16:45
  TRACK 144 AUDIO
    TITLE "20:cjc171_12422"
    INDEX 01 03:17:11
  TRACK 145 AUDIO
    TITLE "0:"
    INDEX 01 03:19:71
  TRACK 146 AUDIO
    TITLE "21:cjc171_12423"
    INDEX 01 03:20:73
  TRACK 147 AUDIO
    TITLE "0:"
    INDEX 01 03:23:41
  TRACK 148 AUDIO
    TITLE "22:cjc171_12424"
    INDEX 01 03:24:06
  TRACK 149 AUDIO
    TITLE "0:"
    INDEX 01 03:26:10
  TRACK 150 AUDIO
    TITLE "23:cjc171_12425"
    INDEX 01 03:26:40
  TRACK 151 AUDIO
    TITLE "0:"
    INDEX 01 03:28:47
  TRACK 152 AUDIO
    TITLE "19:cjc171_12426"
    INDEX 01 03:29:46
  TRACK 153 AUDIO
    TITLE "0:"
    INDEX 01 03:30:71
  TRACK 154 AUDIO
    TITLE "20:cjc171_12427"
    INDEX 01 03:31:33
  TRACK 155 AUDIO
    TITLE "0:"
    INDEX 01 03:34:16
  TRACK 156 AUDIO
    TITLE "21:cjc171_12428"
    INDEX 01 03:35:15
  TRACK 157 AUDIO
    TITLE "0:"
    INDEX 01 03:37:08
  TRACK 158 AUDIO
    TITLE "22:cjc171_12429"
    INDEX 01 03:37:42
  TRACK 159 AUDIO
    TITLE "0:"
    INDEX 01 03:39:60
  TRACK 160 AUDIO
    TITLE "23:cjc171_12430"
    INDEX 01 03:40:07
  TRACK 161 AUDIO
    TITLE "0:"
    INDEX 01 03:42:27
  TRACK 162 AUDIO
    TITLE "19:cjc171_12431"
    INDEX 01 03:43:25
  TRACK 163 AUDIO
    TITLE "0:"
    INDEX 01 03:44:34
  TRACK 164 AUDIO
    TITLE "20:cjc171_12432"
    INDEX 01 03:44:69
  TRACK 165 AUDIO
    TITLE "0:"
    INDEX 01 03:46:15
  TRACK 166 AUDIO
    TITLE "21:cjc171_12433"
    INDEX 01 03:47:13
  TRACK 167 AUDIO
    TITLE "0:"
    INDEX 01 03:50:07
  TRACK 168 AUDIO
    TITLE "22:cjc171_12434"
    INDEX 01 03:50:56
  TRACK 169 AUDIO
    TITLE "0:"
    INDEX 01 03:54:05
  TRACK 170 AUDIO
    TITLE "23:cjc171_12435"
    INDEX 01 03:54:30
  TRACK 171 AUDIO
    TITLE "0:"
    INDEX 01 03:57:56
  TRACK 172 AUDIO
    TITLE "19:cjc171_12436"
    INDEX 01 03:58:61
  TRACK 173 AUDIO
    TITLE "0:"
    INDEX 01 03:59:73
  TRACK 174 AUDIO
    TITLE "20:cjc171_12437"
    INDEX 01 04:00:33
  TRACK 175 AUDIO
    TITLE "0:"
    INDEX 01 04:03:45
  TRACK 176 AUDIO
    TITLE "21:cjc171_12438"
    INDEX 01 04:04:46
  TRACK 177 AUDIO
    TITLE "0:"
    INDEX 01 04:07:11
  TRACK 178 AUDIO
    TITLE "22:cjc171_12439"
    INDEX 01 04:07:45
  TRACK 179 AUDIO
    TITLE "0:"
    INDEX 01 04:10:16
  TRACK 180 AUDIO
    TITLE "23:cjc171_12440"
    INDEX 01 04:10:35
  TRACK 181 AUDIO
    TITLE "0:"
    INDEX 01 04:13:04
  TRACK 182 AUDIO
    TITLE "19:cjc171_12441"
    INDEX 01 04:14:06
  TRACK 183 AUDIO
    TITLE "0:"
    INDEX 01 04:15:40
  TRACK 184 AUDIO
    TITLE "20:cjc171_12442"
    INDEX 01 04:16:06
  TRACK 185 AUDIO
    TITLE "0:"
    INDEX 01 04:20:00
  TRACK 186 AUDIO
    TITLE "21:cjc171_12443"
    INDEX 01 04:20:73
  TRACK 187 AUDIO
    TITLE "0:"
    INDEX 01 04:23:73
  TRACK 188 AUDIO
    TITLE "22:cjc171_12444"
    INDEX 01 04:24:27
  TRACK 189 AUDIO
    TITLE "0:"
    INDEX 01 04:27:12
  TRACK 190 AUDIO
    TITLE "23:cjc171_12445"
    INDEX 01 04:27:36
  TRACK 191 AUDIO
    TITLE "0:"
    INDEX 01 04:30:20
  TRACK 192 AUDIO
    TITLE "19:cjc171_12446"
    INDEX 01 04:31:26
  TRACK 193 AUDIO
    TITLE "0:"
    INDEX 01 04:32:35
  TRACK 194 AUDIO
    TITLE "20:cjc171_12447"
    INDEX 01 04:33:01
  TRACK 195 AUDIO
    TITLE "0:"
    INDEX 01 04:35:27
  TRACK 196 AUDIO
    TITLE "21:cjc171_12448"
    INDEX 01 04:36:25
  TRACK 197 AUDIO
    TITLE "0:"
    INDEX 01 04:38:59
  TRACK 198 AUDIO
    TITLE "22:cjc171_12449"
    INDEX 01 04:39:23
  TRACK 199 AUDIO
    TITLE "0:"
    INDEX 01 04:41:38
  TRACK 200 AUDIO
    TITLE "23:cjc171_12450"
    INDEX 01 04:41:69
  TRACK 201 AUDIO
    TITLE "0:"
    INDEX 01 04:44:09
  TRACK 202 AUDIO
    TITLE "19:cjc171_12451"
    INDEX 01 04:45:14
  TRACK 203 AUDIO
    TITLE "0:"
    INDEX 01 04:46:15
  TRACK 204 AUDIO
    TITLE "20:cjc171_12452"
    INDEX 01 04:46:51
  TRACK 205 AUDIO
    TITLE "0:"
    INDEX 01 04:48:06
  TRACK 206 AUDIO
    TITLE "21:cjc171_12453"
    INDEX 01 04:49:06
  TRACK 207 AUDIO
    TITLE "0:"
    INDEX 01 04:51:11
  TRACK 208 AUDIO
    TITLE "22:cjc171_12454"
    INDEX 01 04:51:48
  TRACK 209 AUDIO
    TITLE "0:"
    INDEX 01 04:53:37
  TRACK 210 AUDIO
    TITLE "23:cjc171_12455"
    INDEX 01 04:53:66
  TRACK 211 AUDIO
    TITLE "0:"
    INDEX 01 04:55:55
  TRACK 212 AUDIO
    TITLE "19:cjc171_12456"
    INDEX 01 04:56:53
  TRACK 213 AUDIO
    TITLE "0:"
    INDEX 01 04:58:11
  TRACK 214 AUDIO
    TITLE "20:cjc171_12457"
    INDEX 01 04:58:46
  TRACK 215 AUDIO
    TITLE "0:"
    INDEX 01 05:00:74
  TRACK 216 AUDIO
    TITLE "21:cjc171_12458"
    INDEX 01 05:01:74
  TRACK 217 AUDIO
    TITLE "0:"
    INDEX 01 05:03:20
  TRACK 218 AUDIO
    TITLE "22:cjc171_12459"
    INDEX 01 05:03:53
  TRACK 219 AUDIO
    TITLE "0:"
    INDEX 01 05:05:40
  TRACK 220 AUDIO
    TITLE "23:cjc171_12460"
    INDEX 01 05:05:60
  TRACK 221 AUDIO
    TITLE "0:"
    INDEX 01 05:07:49
  TRACK 222 AUDIO
    TITLE "19:cjc171_12461"
    INDEX 01 05:08:42
  TRACK 223 AUDIO
    TITLE "0:"
    INDEX 01 05:09:63
  TRACK 224 AUDIO
    TITLE "20:cjc171_12462"
    INDEX 01 05:10:24
  TRACK 225 AUDIO
    TITLE "0:"
    INDEX 01 05:12:32
  TRACK 226 AUDIO
    TITLE "21:cjc171_12463"
    INDEX 01 05:13:30
  TRACK 227 AUDIO
    TITLE "0:"
    INDEX 01 05:14:70
  TRACK 228 AUDIO
    TITLE "22:cjc171_12464"
    INDEX 01 05:15:29
  TRACK 229 AUDIO
    TITLE "0:"
    INDEX 01 05:17:51
  TRACK 230 AUDIO
    TITLE "23:cjc171_12465"
    INDEX 01 05:17:73
  TRACK 231 AUDIO
    TITLE "0:"
    INDEX 01 05:20:20
  TRACK 232 AUDIO
    TITLE "19:cjc171_12466"
    INDEX 01 05:21:18
  TRACK 233 AUDIO
    TITLE "0:"
    INDEX 01 05:22:35
  TRACK 234 AUDIO
    TITLE "20:cjc171_12467"
    INDEX 01 05:22:74
  TRACK 235 AUDIO
    TITLE "0:"
    INDEX 01 05:25:29
  TRACK 236 AUDIO
    TITLE "21:cjc171_12468"
    INDEX 01 05:26:29
  TRACK 237 AUDIO
    TITLE "0:"
    INDEX 01 05:28:67
  TRACK 238 AUDIO
    TITLE "22:cjc171_12469"
    INDEX 01 05:29:29
  TRACK 239 AUDIO
    TITLE "0:"
    INDEX 01 05:32:12
  TRACK 240 AUDIO
    TITLE "23:cjc171_12470"
    INDEX 01 05:32:31
  TRACK 241 AUDIO
    TITLE "0:"
    INDEX 01 05:35:14
  TRACK 242 AUDIO
    TITLE "19:cjc171_12471"
    INDEX 01 05:36:13
  TRACK 243 AUDIO
    TITLE "0:"
    INDEX 01 05:37:26
  TRACK 244 AUDIO
    TITLE "20:cjc171_12472"
    INDEX 01 05:37:66
  TRACK 245 AUDIO
    TITLE "0:"
    INDEX 01 05:39:04
  TRACK 246 AUDIO
    TITLE "21:cjc171_12473"
    INDEX 01 05:39:70
  TRACK 247 AUDIO
    TITLE "0:"
    INDEX 01 05:42:12
  TRACK 248 AUDIO
    TITLE "22:cjc171_12474"
    INDEX 01 05:42:51
  TRACK 249 AUDIO
    TITLE "0:"
    INDEX 01 05:44:58
  TRACK 250 AUDIO
    TITLE "23:cjc171_12475"
    INDEX 01 05:45:12
  TRACK 251 AUDIO
    TITLE "0:"
    INDEX 01 05:47:21
  TRACK 252 AUDIO
    TITLE "19:cjc171_12476"
    INDEX 01 05:48:28
  TRACK 253 AUDIO
    TITLE "0:"
    INDEX 01 05:49:30
  TRACK 254 AUDIO
    TITLE "20:cjc171_12477"
    INDEX 01 05:49:71
  TRACK 255 AUDIO
    TITLE "0:"
    INDEX 01 05:52:18
  TRACK 256 AUDIO
    TITLE "21:cjc171_12478"
    INDEX 01 05:53:21
  TRACK 257 AUDIO
    TITLE "0:"
    INDEX 01 05:55:22
  TRACK 258 AUDIO
    TITLE "22:cjc171_12479"
    INDEX 01 05:55:62
  TRACK 259 AUDIO
    TITLE "0:"
    INDEX 01 05:57:55
  TRACK 260 AUDIO
    TITLE "23:cjc171_12480"
    INDEX 01 05:58:09
  TRACK 261 AUDIO
    TITLE "0:"
    INDEX 01 06:00:02
  TRACK 262 AUDIO
    TITLE "19:cjc171_12481"
    INDEX 01 06:01:05
  TRACK 263 AUDIO
    TITLE "0:"
    INDEX 01 06:02:44
  TRACK 264 AUDIO
    TITLE "20:cjc171_12482"
    INDEX 01 06:03:08
  TRACK 265 AUDIO
    TITLE "0:"
    INDEX 01 06:04:41
  TRACK 266 AUDIO
    TITLE "21:cjc171_12483"
    INDEX 01 06:05:40
  TRACK 267 AUDIO
    TITLE "0:"
    INDEX 01 06:08:01
  TRACK 268 AUDIO
    TITLE "22:cjc171_12484"
    INDEX 01 06:08:41
  TRACK 269 AUDIO
    TITLE "0:"
    INDEX 01 06:11:19
  TRACK 270 AUDIO
    TITLE "23:cjc171_12485"
    INDEX 01 06:11:49
  TRACK 271 AUDIO
    TITLE "0:"
    INDEX 01 06:14:26
  TRACK 272 AUDIO
    TITLE "19:cjc171_12486"
    INDEX 01 06:15:27
  TRACK 273 AUDIO
    TITLE "0:"
    INDEX 01 06:16:36
  TRACK 274 AUDIO
    TITLE "20:cjc171_12487"
    INDEX 01 06:16:70
  TRACK 275 AUDIO
    TITLE "0:"
    INDEX 01 06:19:33
  TRACK 276 AUDIO
    TITLE "21:cjc171_12488"
    INDEX 01 06:20:34
  TRACK 277 AUDIO
    TITLE "0:"
    INDEX 01 06:22:56
  TRACK 278 AUDIO
    TITLE "22:cjc171_12489"
    INDEX 01 06:23:17
  TRACK 279 AUDIO
    TITLE "0:"
    INDEX 01 06:25:37
  TRACK 280 AUDIO
    TITLE "23:cjc171_12490"
    INDEX 01 06:25:69
  TRACK 281 AUDIO
    TITLE "0:"
    INDEX 01 06:28:14
  TRACK 282 AUDIO
    TITLE "19:cjc171_12491"
    INDEX 01 06:29:21
  TRACK 283 AUDIO
    TITLE "0:"
    INDEX 01 06:30:29
  TRACK 284 AUDIO
    TITLE "20:cjc171_12492"
    INDEX 01 06:30:72
  TRACK 285 AUDIO
    TITLE "0:"
    INDEX 01 06:33:21
  TRACK 286 AUDIO
    TITLE "21:cjc171_12493"
    INDEX 01 06:34:20
  TRACK 287 AUDIO
    TITLE "0:"
    INDEX 01 06:35:67
  TRACK 288 AUDIO
    TITLE "22:cjc171_12494"
    INDEX 01 06:36:25
  TRACK 289 AUDIO
    TITLE "0:"
    INDEX 01 06:38:16
  TRACK 290 AUDIO
    TITLE "23:cjc171_12495"
    INDEX 01 06:38:55
  TRACK 291 AUDIO
    TITLE "0:"
    INDEX 01 06:40:48
  TRACK 292 AUDIO
    TITLE "19:cjc171_12496"
    INDEX 01 06:41:60
  TRACK 293 AUDIO
    TITLE "0:"
    INDEX 01 06:42:65
  TRACK 294 AUDIO
    TITLE "20:cjc171_12497"
    INDEX 01 06:43:27
  TRACK 295 AUDIO
    TITLE "0:"
    INDEX 01 06:46:12
  TRACK 296 AUDIO
    TITLE "21:cjc171_12498"
    INDEX 01 06:47:11
  TRACK 297 AUDIO
    TITLE "0:"
    INDEX 01 06:49:08
  TRACK 298 AUDIO
    TITLE "22:cjc171_12499"
    INDEX 01 06:49:46
  TRACK 299 AUDIO
    TITLE "0:"
    INDEX 01 06:51:37
  TRACK 300 AUDIO
    TITLE "23:cjc171_12500"
    INDEX 01 06:51:58
  TRACK 301 AUDIO
    TITLE "0:"
    INDEX 01 06:53:51
